<?xml version="1.0" encoding="UTF-8" standalone="no"?>
<svg
   xmlns:dc="http://purl.org/dc/elements/1.1/"
   xmlns:cc="http://creativecommons.org/ns#"
   xmlns:rdf="http://www.w3.org/1999/02/22-rdf-syntax-ns#"
   xmlns:svg="http://www.w3.org/2000/svg"
   xmlns="http://www.w3.org/2000/svg"
   id="svg8"
   version="1.1"
   viewBox="0 0 85.547394 44.593155"
   height="44.593155mm"
   width="85.547394mm">
  <defs
     id="defs2" />
  <metadata
     id="metadata5">
    <rdf:RDF>
      <cc:Work
         rdf:about="">
        <dc:format>image/svg+xml</dc:format>
        <dc:type
           rdf:resource="http://purl.org/dc/dcmitype/StillImage" />
        <dc:title />
      </cc:Work>
    </rdf:RDF>
  </metadata>
  <path
     style="fill:#2979ff;fill-opacity:1;stroke:none;stroke-width:0.365607px;stroke-linecap:butt;stroke-linejoin:miter;stroke-opacity:1"
     d="M 19.007641,22.540286 14.881752,24.56638 11.032007,20.661029 21.384223,15.577373 Z"
     id="path870" />
  <path
     style="fill:#3d5afe;fill-opacity:1;stroke:none;stroke-width:0.365607px;stroke-linecap:butt;stroke-linejoin:miter;stroke-opacity:1"
     d="m 21.641925,14.822354 -2.634284,7.717932 6.226326,-3.057561 2.634285,-7.717933 z"
     id="path868" />
  <path
     style="fill:#651fff;fill-opacity:1;stroke:none;stroke-width:0.365607px;stroke-linecap:butt;stroke-linejoin:miter;stroke-opacity:1"
     d="m 19.007641,22.540286 -1.574847,4.613986 5.120633,5.1946 2.175345,-1.28409 L 30.425956,14.37316 27.868283,11.764761 25.234,19.482694 Z"
     id="path866" />
  <path
     style="fill:#d500f9;fill-opacity:1;stroke:none;stroke-width:0.365607px;stroke-linecap:butt;stroke-linejoin:miter;stroke-opacity:1"
     d="m 29.102155,18.211648 6.400789,6.493244 -10.774172,6.35989 z"
     id="path864" />
  <path
     d="m 65.41648,17.989092 c -0.977313,0 -1.9909,0.386411 -2.557984,1.122412 -0.361968,0.470559 -0.506632,1.03747 -0.458369,1.604553 v -0.01189 c 0.132723,1.761578 1.677431,2.051125 2.992583,2.183846 0.844589,0.08446 1.712978,0.19303 1.857766,0.832507 0.02413,0.10859 0.03617,0.204929 0.03617,0.289388 0,0.868723 -0.98902,1.375627 -1.89394,1.375627 -0.784265,0 -1.737651,-0.410495 -1.822112,-1.194759 v 0.04858 l -0.01188,-0.181385 -1.230931,0.02429 0.01188,0.229443 c 0.156853,1.5082 1.737558,2.279965 3.040642,2.279964 1.520266,0 3.137275,-0.941013 3.137275,-2.569868 0,-0.168919 -0.02426,-0.374021 -0.06046,-0.555005 -0.325773,-1.351347 -1.761421,-1.653035 -2.919719,-1.797823 -0.90492,-0.08446 -1.858418,-0.192711 -1.918745,-1.061434 -0.02413,-0.289575 0.03624,-0.567269 0.205155,-0.784449 0.337836,-0.434362 0.965123,-0.627172 1.532205,-0.639237 0.736002,-0.01207 1.556559,0.313703 1.725477,1.073836 l 1.206643,-0.04858 c -0.217178,-1.544397 -1.568571,-2.220019 -2.871658,-2.220019 z m -24.26467,0.09663 v 8.433594 h 5.188315 v -1.21853 H 42.37034 v -7.215064 z m 6.023922,0 v 5.899899 c 0,1.725381 1.640805,2.618444 3.124875,2.618445 1.447871,0 3.112986,-0.892727 3.112989,-2.606043 v -5.912301 h -1.230418 v 5.899899 c 0,0.929051 -1.001781,1.399914 -1.882571,1.399914 -0.892855,0 -1.893941,-0.45846 -1.893941,-1.387512 v -5.912301 z m 7.754048,0 v 8.433594 h 3.812688 c 1.61679,0 2.449463,-1.278693 2.449463,-2.545581 0,-0.796329 -0.349917,-1.689383 -1.315165,-2.099613 0.844593,-0.60328 0.953305,-1.56836 0.615466,-2.400887 -0.313706,-0.784264 -0.989264,-1.387513 -2.051037,-1.387513 z m 1.206646,1.158069 h 2.304769 c 1.327216,0 1.302928,2.196249 -0.02429,2.196249 h -2.280481 z m 0,3.402893 h 2.606042 c 0.82046,0 1.230932,0.675329 1.230932,1.338937 0,0.663608 -0.410472,1.351338 -1.230932,1.351338 h -2.606042 z"
     style="font-style:normal;font-variant:normal;font-weight:normal;font-stretch:normal;font-size:3.80727px;line-height:0;font-family:'Sakkal Majalla';-inkscape-font-specification:'Sakkal Majalla';letter-spacing:0.946241px;word-spacing:0px;fill:#444444;fill-opacity:1;stroke:none;stroke-width:0.0951817"
     id="path862" />
</svg>
