<?xml version="1.0" encoding="UTF-8" standalone="no"?>
<svg
   xmlns:dc="http://purl.org/dc/elements/1.1/"
   xmlns:cc="http://creativecommons.org/ns#"
   xmlns:rdf="http://www.w3.org/1999/02/22-rdf-syntax-ns#"
   xmlns:svg="http://www.w3.org/2000/svg"
   xmlns="http://www.w3.org/2000/svg"
   xmlns:sodipodi="http://sodipodi.sourceforge.net/DTD/sodipodi-0.dtd"
   xmlns:inkscape="http://www.inkscape.org/namespaces/inkscape"
   width="85.547394mm"
   height="44.593155mm"
   viewBox="0 0 85.547394 44.593155"
   version="1.1"
   id="svg8"
   sodipodi:docname="LUBS-V1_Logo-Compact_Light.svg"
   inkscape:version="1.0 (4035a4fb49, 2020-05-01)">
  <defs
     id="defs2" />
  <sodipodi:namedview
     id="base"
     pagecolor="#ffffff"
     bordercolor="#666666"
     borderopacity="1.0"
     inkscape:pageopacity="0.0"
     inkscape:pageshadow="2"
     inkscape:zoom="1.979899"
     inkscape:cx="221.49363"
     inkscape:cy="95.827247"
     inkscape:document-units="mm"
     inkscape:current-layer="svg8"
     inkscape:document-rotation="0"
     showgrid="false"
     inkscape:pagecheckerboard="false"
     inkscape:snap-bbox="true"
     inkscape:snap-midpoints="true"
     inkscape:snap-smooth-nodes="true"
     inkscape:snap-global="true"
     inkscape:bbox-paths="true"
     inkscape:bbox-nodes="true"
     inkscape:snap-bbox-edge-midpoints="true"
     inkscape:snap-bbox-midpoints="true"
     inkscape:object-paths="true"
     inkscape:snap-intersection-paths="true"
     inkscape:snap-object-midpoints="true"
     inkscape:snap-center="true"
     inkscape:snap-text-baseline="true"
     inkscape:snap-page="true"
     inkscape:snap-grids="true"
     fit-margin-top="10"
     fit-margin-left="10"
     fit-margin-right="10"
     fit-margin-bottom="10">
    <inkscape:grid
       type="xygrid"
       id="grid1002"
       originx="-20.019798"
       originy="-177.54387" />
  </sodipodi:namedview>
  <metadata
     id="metadata5">
    <rdf:RDF>
      <cc:Work
         rdf:about="">
        <dc:format>image/svg+xml</dc:format>
        <dc:type
           rdf:resource="http://purl.org/dc/dcmitype/StillImage" />
        <dc:title></dc:title>
      </cc:Work>
    </rdf:RDF>
  </metadata>
  <path
     transform="scale(0.26458333)"
     d="M 105.62109 45.748047 L 95.935547 74.128906 L 72.404297 85.685547 L 72.402344 85.689453 L 72.392578 85.693359 L 66.679688 102.44531 L 85.357422 121.39453 L 92.888672 116.94727 L 109.33984 68.607422 L 109.70312 67.550781 L 109.73828 67.587891 L 114.20508 54.5 L 105.62109 45.748047 z M 104.13477 45.826172 L 82.351562 56.515625 L 82.007812 57.521484 L 82.013672 57.519531 L 76.789062 72.824219 L 73.03125 83.837891 L 94.8125 73.140625 L 104.13477 45.826172 z M 79.626953 60.236328 L 42.859375 78.285156 L 56.390625 92.007812 L 71.271484 84.707031 L 73.628906 77.806641 L 79.626953 60.236328 z M 247.24414 67.990234 C 243.55036 67.990234 239.71948 69.450686 237.57617 72.232422 C 236.2081 74.010913 235.66134 76.153569 235.84375 78.296875 L 235.84375 78.251953 C 236.34538 84.909886 242.18364 86.004237 247.1543 86.505859 C 250.34644 86.825078 253.62855 87.235423 254.17578 89.652344 C 254.26698 90.062763 254.3125 90.426879 254.3125 90.746094 C 254.3125 94.029456 250.57447 95.945312 247.1543 95.945312 C 244.19015 95.945312 240.5868 94.393835 240.26758 91.429688 L 240.26758 91.613281 L 240.22266 90.927734 L 235.57031 91.019531 L 235.61523 91.886719 C 236.20806 97.587002 242.18238 100.50391 247.10742 100.50391 C 252.85331 100.50391 258.96484 96.947318 258.96484 90.791016 C 258.96484 90.152582 258.87315 89.377393 258.73633 88.693359 C 257.50506 83.585906 252.07899 82.445668 247.70117 81.898438 C 244.281 81.579219 240.67723 81.170081 240.44922 77.886719 C 240.35802 76.792262 240.58619 75.742713 241.22461 74.921875 C 242.50147 73.280192 244.87232 72.551459 247.01562 72.505859 C 249.79736 72.46024 252.89868 73.69151 253.53711 76.564453 L 258.09766 76.380859 C 257.27683 70.543768 252.16919 67.990234 247.24414 67.990234 z M 155.53516 68.355469 L 155.53516 100.23047 L 175.14453 100.23047 L 175.14453 95.625 L 160.14062 95.625 L 160.14062 68.355469 L 155.53516 68.355469 z M 178.30273 68.355469 L 178.30273 90.654297 C 178.30273 97.175422 184.5042 100.55078 190.11328 100.55078 C 195.58555 100.55078 201.87889 97.176697 201.87891 90.701172 L 201.87891 68.355469 L 197.22852 68.355469 L 197.22852 90.654297 C 197.22852 94.165671 193.44225 95.945312 190.11328 95.945312 C 186.73871 95.945312 182.95508 94.21255 182.95508 90.701172 L 182.95508 68.355469 L 178.30273 68.355469 z M 207.60938 68.355469 L 207.60938 100.23047 L 222.01953 100.23047 C 228.13023 100.23047 231.27734 95.397613 231.27734 90.609375 C 231.27734 87.599628 229.95482 84.224304 226.30664 82.673828 C 229.4988 80.393715 229.90968 76.746168 228.63281 73.599609 C 227.44715 70.635462 224.89386 68.355469 220.88086 68.355469 L 207.60938 68.355469 z M 110.32227 70.152344 L 94.720703 115.87109 L 133.06641 93.226562 L 110.32227 70.152344 z M 212.16992 72.732422 L 220.88086 72.732422 C 225.89711 72.732422 225.80532 81.033203 220.78906 81.033203 L 212.16992 81.033203 L 212.16992 72.732422 z M 212.16992 85.59375 L 222.01953 85.59375 C 225.12048 85.59375 226.67188 88.146172 226.67188 90.654297 C 226.67188 93.162422 225.12048 95.761719 222.01953 95.761719 L 212.16992 95.761719 L 212.16992 85.59375 z "
     inkscape:label="L1"
     style="font-style:normal;font-variant:normal;font-weight:normal;font-stretch:normal;font-size:3.80727px;line-height:0;font-family:'Sakkal Majalla';-inkscape-font-specification:'Sakkal Majalla';letter-spacing:0.946241px;word-spacing:0px;fill:#ffffff;fill-opacity:1;stroke:none;stroke-width:0.359742"
     id="path862" />
</svg>
